<svg class="animated" id="freepik_stories-photo-sharing" xmlns="http://www.w3.org/2000/svg" viewBox="0 0 500 500" version="1.1" xmlns:xlink="http://www.w3.org/1999/xlink" xmlns:svgjs="http://svgjs.com/svgjs"><style>svg#freepik_stories-photo-sharing:not(.animated) .animable {opacity: 0;}svg#freepik_stories-photo-sharing.animated #freepik--Phone--inject-3 {animation: 1.5s Infinite  linear wind;animation-delay: 0s;}            @keyframes wind {                0% {                    transform: rotate( 0deg );                }                25% {                    transform: rotate( 1deg );                }                75% {                    transform: rotate( -1deg );                }            }        </style><g id="freepik--Shadow--inject-3" class="animable" style="transform-origin: 250px 416.24px;"><ellipse id="freepik--path--inject-3" cx="250" cy="416.24" rx="193.89" ry="11.32" style="fill: rgb(245, 245, 245); transform-origin: 250px 416.24px;" class="animable"></ellipse></g><g id="freepik--Photo--inject-3" class="animable" style="transform-origin: 153.57px 168.055px;"><g id="ell9l5nllog2d"><polygon points="250.4 238.87 88.34 257.81 56.74 97.24 218.79 78.3 250.4 238.87" style="fill: rgb(85, 150, 246); opacity: 0.2; transform-origin: 153.57px 168.055px;" class="animable"></polygon></g><g id="elpv9u3pjjxgm"><polygon points="240.97 231.98 94.69 249.08 66.17 104.13 212.45 87.03 240.97 231.98" style="fill: rgb(85, 150, 246); opacity: 0.7; transform-origin: 153.57px 168.055px;" class="animable"></polygon></g><g id="elreor8uxy7h"><ellipse cx="117.13" cy="137.09" rx="19.6" ry="21.19" style="fill: rgb(255, 255, 255); opacity: 0.8; transform-origin: 117.13px 137.09px; transform: rotate(-52.78deg);" class="animable"></ellipse></g><g id="eltr4y1igi8dq"><polygon points="240.97 231.98 174.36 183.26 153.03 212.6 132.25 197.4 94.69 249.08 129.56 244.91 129.24 245.34 240.97 231.98" style="opacity: 0.2; transform-origin: 167.83px 216.17px;" class="animable"></polygon></g></g><g id="freepik--Phone--inject-3" class="animable" style="transform-origin: 226.56px 258.8px;"><g id="el5swq0fnit6y"><rect x="147.83" y="285.15" width="1" height="14.04" style="fill: rgb(38, 50, 56); transform-origin: 148.33px 292.17px; transform: rotate(-4.47deg);" class="animable"></rect></g><g id="elb0pc0ibpv7s"><rect x="149.02" y="304.31" width="1" height="6.2" style="fill: rgb(38, 50, 56); transform-origin: 149.52px 307.41px; transform: rotate(-4.47deg);" class="animable"></rect></g><path d="M175.25,411.21H290.34a13.37,13.37,0,0,0,13.48-14.61L282.29,121a16.13,16.13,0,0,0-15.76-14.61H151.44A13.35,13.35,0,0,0,138,121L159.5,396.6A16.13,16.13,0,0,0,175.25,411.21Z" style="fill: rgb(38, 50, 56); transform-origin: 220.909px 258.8px;" id="elsf9nobleq6k" class="animable"></path><path d="M144.52,194.84h2.22a2.38,2.38,0,0,0,2.4-2.61l-2.48-31.83a2.89,2.89,0,0,0-2.82-2.61h-2.22a2.38,2.38,0,0,0-2.4,2.61l2.48,31.83A2.88,2.88,0,0,0,144.52,194.84Z" style="fill: rgb(38, 50, 56); transform-origin: 144.18px 176.315px;" id="elf9y5noeghxo" class="animable"></path><path d="M146.34,226.43h3.51a1.79,1.79,0,0,0,1.81-2l-1.32-17a2.17,2.17,0,0,0-2.12-2H144.7a1.79,1.79,0,0,0-1.81,2l1.33,17A2.17,2.17,0,0,0,146.34,226.43Z" style="fill: rgb(38, 50, 56); transform-origin: 147.275px 215.93px;" id="ela3fdlvq2i05" class="animable"></path><path d="M180.26,411.21H295.35a13.35,13.35,0,0,0,13.47-14.61L287.29,121a16.11,16.11,0,0,0-15.75-14.61H156.45A13.35,13.35,0,0,0,143,121L164.5,396.6A16.14,16.14,0,0,0,180.26,411.21Z" style="fill: rgb(85, 150, 246); transform-origin: 225.91px 258.8px;" id="el6pywp41peti" class="animable"></path><g id="el42qf6ctg5wa"><path d="M230.21,397.25a7.16,7.16,0,0,0,7,6.51,5.93,5.93,0,0,0,6-6.51,7.15,7.15,0,0,0-7-6.5A5.93,5.93,0,0,0,230.21,397.25Z" style="opacity: 0.2; transform-origin: 236.711px 397.255px;" class="animable"></path></g><g id="el5ijz1rd5je5"><polygon points="163.61 385.14 307.93 385.14 287.46 123.22 143.15 123.22 163.61 385.14" style="fill: rgb(255, 255, 255); opacity: 0.8; transform-origin: 225.54px 254.18px;" class="animable"></polygon></g><g id="elv7y1ol2cj7"><path d="M231.16,114.15a2.53,2.53,0,0,0-2.48-2.3,2.11,2.11,0,0,0-2.13,2.3,2.53,2.53,0,0,0,2.49,2.3A2.1,2.1,0,0,0,231.16,114.15Z" style="opacity: 0.2; transform-origin: 228.855px 114.15px;" class="animable"></path></g><g id="elk5umhlrzur"><path d="M220.73,111.85H201.62a2.11,2.11,0,0,0-2.13,2.3h0a2.55,2.55,0,0,0,2.48,2.3h19.12a2.11,2.11,0,0,0,2.12-2.3h0A2.54,2.54,0,0,0,220.73,111.85Z" style="opacity: 0.2; transform-origin: 211.35px 114.15px;" class="animable"></path></g><g id="elf1zcvjrbuat"><ellipse cx="214.35" cy="337.73" rx="12.9" ry="13.95" style="fill: rgb(255, 255, 255); transform-origin: 214.35px 337.73px; transform: rotate(-46.12deg);" class="animable"></ellipse></g><path d="M264.86,359a12.23,12.23,0,0,1-12.37,13.42A14.77,14.77,0,0,1,238,359a12.23,12.23,0,0,1,12.37-13.42A14.77,14.77,0,0,1,264.86,359Z" style="fill: rgb(255, 255, 255); transform-origin: 251.43px 359px;" id="eld2p9s6canwk" class="animable"></path><g id="elry9xov20sq"><ellipse cx="248.12" cy="316.47" rx="12.9" ry="13.95" style="fill: rgb(255, 255, 255); transform-origin: 248.12px 316.47px; transform: rotate(-46.12deg);" class="animable"></ellipse></g><path d="M251.56,360.49a1.61,1.61,0,0,1-.79-.21L213.68,339a1.63,1.63,0,0,1-.83-1.29,1.37,1.37,0,0,1,.62-1.29l33.78-21.26a1.57,1.57,0,0,1,2.09.52,1.44,1.44,0,0,1-.35,2.06l-31.73,20,34.85,20a1.58,1.58,0,0,1,.68,2.06A1.37,1.37,0,0,1,251.56,360.49Z" style="fill: rgb(255, 255, 255); transform-origin: 232.891px 337.725px;" id="elpes1levwrch" class="animable"></path><g id="el68ksy1aul8f"><polygon points="300.44 289.32 165 289.32 153.88 146.99 289.32 146.99 300.44 289.32" style="opacity: 0.1; transform-origin: 227.16px 218.155px;" class="animable"></polygon></g><polygon points="315.18 280.81 172.84 280.81 161.72 138.48 304.06 138.48 315.18 280.81" style="fill: rgb(255, 255, 255); transform-origin: 238.45px 209.645px;" id="eletqyl1nijco" class="animable"></polygon><polygon points="307.71 273.89 179.23 273.89 169.19 145.41 297.67 145.41 307.71 273.89" style="fill: rgb(85, 150, 246); transform-origin: 238.45px 209.65px;" id="elfdw99z4tsom" class="animable"></polygon><g id="el1vlx16tyv0o"><ellipse cx="210.01" cy="179.12" rx="17.1" ry="18.49" style="fill: rgb(255, 255, 255); opacity: 0.8; transform-origin: 210.01px 179.12px; transform: rotate(-46.12deg);" class="animable"></ellipse></g><g id="el5imrsvvmkft"><polygon points="307.71 273.89 254.92 224.93 233.48 248.19 217 232.91 179.23 273.89 209.86 273.81 209.55 274.15 307.71 273.89" style="opacity: 0.2; transform-origin: 243.47px 249.54px;" class="animable"></polygon></g></g><g id="freepik--Character--inject-3" class="animable animator-active" style="transform-origin: 338.308px 269.481px;"><path d="M378.5,177.31c.45,1,.78,1.87,1.11,2.8s.65,1.81.95,2.72c.61,1.81,1.13,3.64,1.63,5.47q1.47,5.49,2.44,11.06l.24,1.4.06.34.07.44a9.24,9.24,0,0,1,.1,1.16,10.67,10.67,0,0,1-.7,4,19.24,19.24,0,0,1-3.41,5.69,39.16,39.16,0,0,1-8.94,7.73l-2.68-3.3a58.41,58.41,0,0,0,6.26-8.27,14.76,14.76,0,0,0,1.76-4,3.72,3.72,0,0,0,.07-1.41l-.54-2.09c-.9-3.5-1.86-7-2.92-10.39-.52-1.71-1.08-3.41-1.63-5.1-.28-.84-.57-1.68-.87-2.5l-.87-2.36Z" style="fill: rgb(255, 181, 115); transform-origin: 377.236px 198.715px;" id="eldpqfkbrc02j" class="animable"></path><path d="M373,218.85l2.58,5.55L372,226.47s-6.95-10.15-1.71-10.48Z" style="fill: rgb(255, 181, 115); transform-origin: 371.957px 221.23px;" id="el6udk87lngq" class="animable"></path><path d="M358.71,408.18a10.18,10.18,0,0,0,2.21-.3.22.22,0,0,0,.15-.16.2.2,0,0,0-.09-.2c-.29-.19-2.83-1.83-3.8-1.39a.67.67,0,0,0-.4.56,1.13,1.13,0,0,0,.33,1.05A2.38,2.38,0,0,0,358.71,408.18Zm1.65-.58c-1.46.29-2.56.24-3-.15a.77.77,0,0,1-.21-.71.3.3,0,0,1,.17-.25C357.85,406.26,359.32,407,360.36,407.6Z" style="fill: rgb(85, 150, 246); transform-origin: 358.914px 407.122px;" id="elae266zexzo" class="animable"></path><path d="M360.87,407.88l.1,0a.21.21,0,0,0,.1-.17c0-.11,0-2.52-.92-3.32a1,1,0,0,0-.84-.27.69.69,0,0,0-.67.55c-.19,1,1.33,2.75,2.13,3.21A.18.18,0,0,0,360.87,407.88Zm-1.42-3.39a.7.7,0,0,1,.44.17,4.52,4.52,0,0,1,.77,2.64c-.79-.64-1.74-2-1.63-2.57,0-.09.07-.21.33-.24Z" style="fill: rgb(85, 150, 246); transform-origin: 359.847px 405.998px;" id="elqy7vjv32y1" class="animable"></path><path d="M360.14,148.07c-1,5-3,15,.45,18.35,0,0-1.36,5-10.6,5-10.15,0-4.85-5-4.85-5,5.54-1.32,5.4-5.43,4.43-9.3Z" style="fill: rgb(255, 181, 115); transform-origin: 352.173px 159.745px;" id="elylr9k4pmln9" class="animable"></path><path d="M344.56,168.05c-1.37.2-.1-2.93.47-3.26,1.31-.78,18-2.35,17.81-.59a4.65,4.65,0,0,1-1.3,2.77C360.79,167.5,356.57,166.12,344.56,168.05Z" style="fill: rgb(85, 150, 246); transform-origin: 353.394px 165.728px;" id="el90x3jun3n8e" class="animable"></path><path d="M340,137.41a.39.39,0,0,1-.32-.16,3.18,3.18,0,0,0-2.51-1.38.4.4,0,1,1,0-.79,3.93,3.93,0,0,1,3.19,1.7.4.4,0,0,1-.09.56A.39.39,0,0,1,340,137.41Z" style="fill: rgb(38, 50, 56); transform-origin: 338.572px 136.244px;" id="elliar1tykn5" class="animable"></path><path d="M337.74,142.18a17.91,17.91,0,0,1-2.24,4.41,2.93,2.93,0,0,0,2.43.35Z" style="fill: rgb(255, 86, 82); transform-origin: 336.715px 144.621px;" id="ellvc7btkp37l" class="animable"></path><path d="M338.3,141c0,.68-.31,1.24-.75,1.25s-.82-.51-.85-1.19.31-1.23.75-1.25S338.27,140.33,338.3,141Z" style="fill: rgb(38, 50, 56); transform-origin: 337.499px 141.03px;" id="elz5tvhsp0sfg" class="animable"></path><path d="M337.65,139.84l-1.64-.4S336.89,140.67,337.65,139.84Z" style="fill: rgb(38, 50, 56); transform-origin: 336.83px 139.784px;" id="elm2c93vqm64i" class="animable"></path><polygon points="370.61 407.69 362.24 407.69 362.89 388.29 371.27 388.29 370.61 407.69" style="fill: rgb(255, 181, 115); transform-origin: 366.755px 397.99px;" id="elkg669xxp4oq" class="animable"></polygon><g id="elboz5ml15zsa"><polygon points="371.27 388.29 362.89 388.29 362.56 398.29 370.94 398.29 371.27 388.29" style="opacity: 0.2; transform-origin: 366.915px 393.29px;" class="animable"></polygon></g><path d="M361.57,406.72H371a.65.65,0,0,1,.67.57l1.07,7.44a1.33,1.33,0,0,1-1.34,1.49c-3.28-.05-4.86-.25-9-.25-2.54,0-6.26.27-9.78.27s-3.7-3.48-2.24-3.79c6.56-1.42,7.6-3.36,9.81-5.22A2.21,2.21,0,0,1,361.57,406.72Z" style="fill: rgb(38, 50, 56); transform-origin: 361.134px 411.48px;" id="elwl4dtcbnox8" class="animable"></path><path d="M334.31,180c-1.66,4.18-3.45,8.16-5.46,12.14a103.6,103.6,0,0,1-6.72,11.7c-.67,1-1.34,1.9-2.09,2.84-.4.48-.73.91-1.18,1.42a12.71,12.71,0,0,1-1.75,1.61,12.47,12.47,0,0,1-4.11,2,14.83,14.83,0,0,1-4.1.54,23.46,23.46,0,0,1-7.3-1.25,28.79,28.79,0,0,1-3.27-1.28,28.48,28.48,0,0,1-3.14-1.63L297,204.2c3.82,1,8.1,1.72,11.51,1.23a6.89,6.89,0,0,0,3.89-1.66,4.5,4.5,0,0,0,.57-.66l.82-1.14c.55-.79,1.08-1.65,1.61-2.51,1.05-1.74,2.05-3.56,3-5.42s1.91-3.74,2.81-5.66c1.78-3.82,3.54-7.75,5.17-11.59Z" style="fill: rgb(255, 181, 115); transform-origin: 314.75px 194.52px;" id="el31so7v7tbrc" class="animable"></path><path d="M331,168.57c-4.16,1-9.29,12.44-9.29,12.44l9.91,12.7s10.24-14.49,8.87-18.91C339.05,170.19,336,167.34,331,168.57Z" style="fill: rgb(38, 50, 56); transform-origin: 331.163px 180.997px;" id="elx87t61mblh" class="animable"></path><path d="M298.88,204.8l-6.23-2-1.37,6.52s6.1,1.19,8.51-1.47Z" style="fill: rgb(255, 181, 115); transform-origin: 295.535px 206.193px;" id="el514lj2xdnlu" class="animable"></path><polygon points="286.87 203.6 286.87 208.26 291.28 209.37 292.64 202.85 286.87 203.6" style="fill: rgb(255, 181, 115); transform-origin: 289.755px 206.11px;" id="elv5b9vbnoqpr" class="animable"></polygon><path d="M360.9,137.79c-.18,8.31-.08,11.83-4.1,16.25-6.05,6.65-16.22,4.61-18.52-3.59-2.07-7.38-1.42-19.73,6.56-23.35A11.34,11.34,0,0,1,360.9,137.79Z" style="fill: rgb(255, 181, 115); transform-origin: 349.091px 142.04px;" id="elql0kclhrah" class="animable"></path><path d="M372.33,156.45c-2.59-3.4-2.12-7.12-1.62-11.06.56-4.44,1.18-9.44-2.63-14.63a1.4,1.4,0,0,1-.1-.16c-9.51-13.46-27.71-7.07-29.1,0-1,5.08.28,3.48,2.73,8.73s-.05,16.54-1,20.53c4.08,2.76,26.59,3.23,30.11-2.28-2.12-3.33-1.71-6.66-1-10.16-.33,3.32-.27,6.48,2,9.48a.38.38,0,0,0,.3.15.4.4,0,0,0,.23-.08A.38.38,0,0,0,372.33,156.45Z" style="fill: rgb(38, 50, 56); transform-origin: 355.469px 142.291px;" id="eln5rypirp7ad" class="animable"></path><path d="M345,141.64a6.86,6.86,0,0,1-1.9,4.17c-1.48,1.53-3,.65-3.27-1.16-.23-1.63.26-4.39,2.06-5.26S345.09,139.79,345,141.64Z" style="fill: rgb(255, 181, 115); transform-origin: 342.391px 142.852px;" id="el9mmgxyz7li" class="animable"></path><path d="M344,219.12s4.86,57.49,9.9,89.89c4.07,26.17,7.29,87.35,7.29,87.35h11.42s5.44-59.08,3.37-85c-5.23-65.49,3.95-77.09-6.95-92.27Z" style="fill: rgb(85, 150, 246); transform-origin: 360.225px 307.725px;" id="elcc2duigvwss" class="animable"></path><g id="elnk4gv8vrsqk"><path d="M356.76,250.15c-.48,17.2-3.72,27.85-6.28,33.59-1.34-11.22-2.57-22.93-3.6-33.26C350.39,238.78,357.13,237.2,356.76,250.15Z" style="opacity: 0.2; transform-origin: 351.827px 262.399px;" class="animable"></path></g><path d="M377.6,374.27a.21.21,0,0,0-.32-.17c-.34.25-3.33,2.51-3.27,3.68a.62.62,0,0,0,.32.53,1.09,1.09,0,0,0,1,.1c1.13-.45,1.88-2.76,2.23-4.1A.06.06,0,0,0,377.6,374.27Zm-3.2,3.45c0-.66,1.49-2,2.65-2.94-.53,1.8-1.21,3-1.84,3.27a.71.71,0,0,1-.67-.08.24.24,0,0,1-.14-.21Z" style="fill: rgb(85, 150, 246); transform-origin: 375.805px 376.278px;" id="el2l6szs385bd" class="animable"></path><path d="M377.6,374.27v0a.18.18,0,0,0-.13-.15c-.09,0-2.2-.85-3.45-.29a1.48,1.48,0,0,0-.79.84c-.19.52,0,.79.18.92.79.55,3.28-.44,4.12-1.14A.17.17,0,0,0,377.6,374.27Zm-4.05.73a1.09,1.09,0,0,1,.64-.84,4.6,4.6,0,0,1,2.79.16c-1,.65-2.87,1.24-3.34.9A.21.21,0,0,1,373.55,375Z" style="fill: rgb(85, 150, 246); transform-origin: 375.378px 374.694px;" id="eltndhaiogb3g" class="animable"></path><polygon points="383.06 366.81 378.3 373.71 371.68 369.43 363.02 363.82 362.01 363.17 366.76 356.27 367.9 357 376.29 362.43 383.06 366.81" style="fill: rgb(255, 181, 115); transform-origin: 372.535px 364.99px;" id="elt3chy51mc4r" class="animable"></polygon><g id="elky5vw08fbc"><polygon points="376.29 362.43 371.68 369.43 363.02 363.82 367.9 357 376.29 362.43" style="opacity: 0.2; transform-origin: 369.655px 363.215px;" class="animable"></polygon></g><path d="M335,219.12s-12.53,57.14-12.53,86.55c0,26.57,45,63.16,45,63.16l6.33-9.56s-30.78-42.08-29-50.6c5.19-24.72,13.84-78,13.74-89.55Z" style="fill: rgb(85, 150, 246); transform-origin: 348.135px 293.975px;" id="el9vqd7h61ww" class="animable"></path><path d="M376.77,373.34l4.11-8.46a.66.66,0,0,1,.81-.35l7.16,2.29a1.35,1.35,0,0,1,.76,1.86c-1.49,2.92-2.35,4.26-4.16,8-1.11,2.29-3.18,7.15-4.71,10.31s-4.75,1.81-4.39.36c1.6-6.53,1-9.7.27-12.5A2.18,2.18,0,0,1,376.77,373.34Z" style="fill: rgb(38, 50, 56); transform-origin: 383.034px 376.707px;" id="elna5stcfd9l8" class="animable"></path><polygon points="367.96 371.04 376.42 359.21 372.27 355.38 363.2 368.04 367.96 371.04" style="fill: rgb(38, 50, 56); transform-origin: 369.81px 363.21px;" id="elm4bzpz8j0g" class="animable"></polygon><polygon points="359.59 396.58 374.14 396.58 374.91 391.48 359.51 390.96 359.59 396.58" style="fill: rgb(38, 50, 56); transform-origin: 367.21px 393.77px;" id="elc7g81kd2706" class="animable"></polygon><path d="M382.23,181.61l-8.41,6.7-5.05,4s-.53-1.41-1.17-3.43c-1.22-3.9-2.81-10.08-1.71-12.92,1.73-4.5,5-8.56,9.14-7.66C378.51,169.09,382.23,181.61,382.23,181.61Z" style="fill: rgb(38, 50, 56); transform-origin: 373.875px 180.242px;" id="elpg5j2f8fnhf" class="animable"></path><g id="elkstg22d65yo"><path d="M373.82,188.31l-5.05,4s-.53-1.41-1.17-3.43l3-14.85Z" style="opacity: 0.2; transform-origin: 370.71px 183.17px;" class="animable"></path></g><path d="M331,168.57s-4,1.4,4,50.55h34c-.57-13.84-.59-22.38,6-50.8a100.27,100.27,0,0,0-14.44-1.9,107.54,107.54,0,0,0-15.45,0C338.5,167,331,168.57,331,168.57Z" style="fill: rgb(38, 50, 56); transform-origin: 352.5px 192.631px;" id="el0sfwefn3rz2" class="animable"></path><path d="M369.51,217.13l1.53,3c.12.24-.16.48-.55.48H334.81c-.3,0-.56-.15-.58-.35l-.3-3c0-.21.24-.39.58-.39H369A.6.6,0,0,1,369.51,217.13Z" style="fill: rgb(85, 150, 246); transform-origin: 352.499px 218.74px;" id="el4jkxgc97mtm" class="animable"></path><g id="el139076s8n3zj"><path d="M369.51,217.13l1.53,3c.12.24-.16.48-.55.48H334.81c-.3,0-.56-.15-.58-.35l-.3-3c0-.21.24-.39.58-.39H369A.6.6,0,0,1,369.51,217.13Z" style="opacity: 0.2; transform-origin: 352.499px 218.74px;" class="animable"></path></g><path d="M364.88,221h.93c.18,0,.32-.1.31-.21l-.44-4c0-.12-.17-.21-.35-.21h-.93c-.18,0-.32.09-.31.21l.44,4C364.54,220.88,364.7,221,364.88,221Z" style="fill: rgb(85, 150, 246); transform-origin: 365.105px 218.79px;" id="elxbemyrexmz" class="animable"></path><path d="M342.52,221h.92c.19,0,.33-.1.31-.21l-.43-4c0-.12-.17-.21-.36-.21H342c-.18,0-.32.09-.31.21l.43,4C342.18,220.88,342.34,221,342.52,221Z" style="fill: rgb(85, 150, 246); transform-origin: 342.721px 218.79px;" id="elovwvnj5kvbi" class="animable"></path></g><defs>     <filter id="active" height="200%">         <feMorphology in="SourceAlpha" result="DILATED" operator="dilate" radius="2"></feMorphology>                <feFlood flood-color="#32DFEC" flood-opacity="1" result="PINK"></feFlood>        <feComposite in="PINK" in2="DILATED" operator="in" result="OUTLINE"></feComposite>        <feMerge>            <feMergeNode in="OUTLINE"></feMergeNode>            <feMergeNode in="SourceGraphic"></feMergeNode>        </feMerge>    </filter>    <filter id="hover" height="200%">        <feMorphology in="SourceAlpha" result="DILATED" operator="dilate" radius="2"></feMorphology>                <feFlood flood-color="#ff0000" flood-opacity="0.5" result="PINK"></feFlood>        <feComposite in="PINK" in2="DILATED" operator="in" result="OUTLINE"></feComposite>        <feMerge>            <feMergeNode in="OUTLINE"></feMergeNode>            <feMergeNode in="SourceGraphic"></feMergeNode>        </feMerge>            <feColorMatrix type="matrix" values="0   0   0   0   0                0   1   0   0   0                0   0   0   0   0                0   0   0   1   0 "></feColorMatrix>    </filter></defs></svg>